<?xml version="1.0" encoding="UTF-8"?>
<svg version="1.1" xmlns="http://www.w3.org/2000/svg" width="468" height="468">
<path d="M0 0 C0.97004974 0.00054382 1.94009949 0.00108765 2.93954468 0.00164795 C18.52378224 0.041742 33.4368004 0.91653658 48.6875 4.375 C50.16718262 4.70443604 50.16718262 4.70443604 51.67675781 5.04052734 C87.10787423 13.13890449 119.21900747 28.89199867 147.6875 51.375 C148.25033691 51.81924316 148.81317383 52.26348633 149.39306641 52.72119141 C163.85935863 64.2690362 176.74841142 77.45071469 187.6875 92.375 C188.11224609 92.94428223 188.53699219 93.51356445 188.97460938 94.10009766 C211.73869155 124.63875101 226.51736222 159.77610928 232.6875 197.375 C232.96352051 199.00248169 232.96352051 199.00248169 233.24511719 200.6628418 C234.92784632 211.66882015 235.0859688 222.57289171 235.0625 233.6875 C235.06168427 235.14257462 235.06168427 235.14257462 235.06085205 236.62704468 C235.020758 252.21128224 234.14596342 267.1243004 230.6875 282.375 C230.46787598 283.36145508 230.24825195 284.34791016 230.02197266 285.36425781 C221.92359551 320.79537423 206.17050133 352.90650747 183.6875 381.375 C183.24325684 381.93783691 182.79901367 382.50067383 182.34130859 383.08056641 C170.7934638 397.54685863 157.61178531 410.43591142 142.6875 421.375 C141.83357666 422.01211914 141.83357666 422.01211914 140.96240234 422.66210938 C110.42374899 445.42619155 75.28639072 460.20486222 37.6875 466.375 C36.60251221 466.55901367 35.51752441 466.74302734 34.3996582 466.93261719 C23.39367985 468.61534632 12.48960829 468.7734688 1.375 468.75 C0.40495026 468.74945618 -0.56509949 468.74891235 -1.56454468 468.74835205 C-17.14878224 468.708258 -32.0618004 467.83346342 -47.3125 464.375 C-48.29895508 464.15537598 -49.28541016 463.93575195 -50.30175781 463.70947266 C-85.73287423 455.61109551 -117.84400747 439.85800133 -146.3125 417.375 C-146.87533691 416.93075684 -147.43817383 416.48651367 -148.01806641 416.02880859 C-162.48435863 404.4809638 -175.37341142 391.29928531 -186.3125 376.375 C-186.94961914 375.52107666 -186.94961914 375.52107666 -187.59960938 374.64990234 C-210.36369155 344.11124899 -225.14236222 308.97389072 -231.3125 271.375 C-231.49651367 270.29001221 -231.68052734 269.20502441 -231.87011719 268.0871582 C-233.55284632 257.08117985 -233.7109688 246.17710829 -233.6875 235.0625 C-233.68695618 234.09245026 -233.68641235 233.12240051 -233.68585205 232.12295532 C-233.645758 216.53871776 -232.77096342 201.6256996 -229.3125 186.375 C-228.98306396 184.89531738 -228.98306396 184.89531738 -228.64697266 183.38574219 C-220.54859551 147.95462577 -204.79550133 115.84349253 -182.3125 87.375 C-181.86825684 86.81216309 -181.42401367 86.24932617 -180.96630859 85.66943359 C-169.4184638 71.20314137 -156.23678531 58.31408858 -141.3125 47.375 C-140.74321777 46.95025391 -140.17393555 46.52550781 -139.58740234 46.08789062 C-109.04874899 23.32380845 -73.91139072 8.54513778 -36.3125 2.375 C-35.22751221 2.19098633 -34.14252441 2.00697266 -33.0246582 1.81738281 C-22.01867985 0.13465368 -11.11460829 -0.0234688 0 0 Z " fill="#FDFDFD" transform="translate(233.3125,-0.375)"/>
<path d="M0 0 C90.39497423 0 90.39497423 0 109.3515625 17.265625 C125.75595804 34.525226 127.52875072 57.29634776 127.33618164 79.84936523 C127.31238986 82.82628155 127.31567342 85.80230808 127.32226562 88.77929688 C127.29129106 110.72494711 124.34901159 131.21185015 108.6875 147.8125 C80.85293045 174.27427615 32.18509714 164 0 164 C0 109.88 0 55.76 0 0 Z " fill="#020202" transform="translate(317,152)"/>
<path d="M0 0 C14.19 0 28.38 0 43 0 C47.66309186 8.16041075 52.11313178 15.96321856 56 24.4375 C59.11628287 31.10902921 62.35106443 37.64509849 65.8840332 44.10595703 C70.45341112 52.55844835 74.46074741 61.29961527 78.54956055 69.99145508 C80.6514405 74.35123739 82.83548615 78.67097229 85 83 C85.33 55.61 85.66 28.22 86 0 C99.2 0 112.4 0 126 0 C126 54.12 126 108.24 126 164 C112.47 164 98.94 164 85 164 C82.36 158.72 79.72 153.44 77 148 C74.33717142 142.68618064 74.33717142 142.68618064 71.67355347 137.37275696 C69.42065108 132.87936816 67.16988504 128.38490973 64.9192791 123.89037037 C63.22409773 120.50524029 61.52815506 117.12049585 59.83056641 113.73657227 C58.1596462 110.40571871 56.49077067 107.07384762 54.82321548 103.74130821 C54.19810886 102.49291205 53.57231089 101.24486176 52.94573593 99.99720192 C52.06459379 98.24234881 51.1863226 96.48605509 50.30810547 94.72973633 C49.812612 93.74097 49.31711853 92.75220367 48.80661011 91.73347473 C46.12563957 86.19307853 43.57928838 80.58845816 41 75 C40.67 104.37 40.34 133.74 40 164 C26.8 164 13.6 164 0 164 C0 109.88 0 55.76 0 0 Z " fill="#020202" transform="translate(168,152)"/>
<path d="M0 0 C93.09141075 0 93.09141075 0 111.78515625 15.78515625 C122.37619117 26.37619117 126.95078763 41.22335744 127.375 55.875 C127.24224372 70.7879552 121.89159375 85.83056912 111.6875 96.875 C97.23556393 110.01603036 80.58933799 110.57557856 62.125 110.25 C55.48375 110.1675 48.8425 110.085 42 110 C42 127.49 42 144.98 42 163 C28.14 163 14.28 163 0 163 C0 109.21 0 55.42 0 0 Z " fill="#010101" transform="translate(25,152)"/>
<path d="M0 0 C29.90909091 0 29.90909091 0 36.8125 6.75 C41.58177426 13.8357789 41.30783064 21.57993958 41.30078125 29.83984375 C41.30506638 30.96137344 41.3093515 32.08290314 41.31376648 33.23841858 C41.31948765 35.60091479 41.32002644 37.96342861 41.31567383 40.32592773 C41.31251303 43.9226713 41.33600485 47.51859223 41.36132812 51.11523438 C41.36360139 53.4192698 41.36430449 55.72330743 41.36328125 58.02734375 C41.372491 59.09323227 41.38170074 60.15912079 41.39118958 61.25730896 C41.34405234 68.93526652 40.45348875 76.06608896 35.75 82.375 C25.65053384 92.01539951 14.02631625 88 0 88 C0 58.96 0 29.92 0 0 Z " fill="#FBFCFC" transform="translate(359,190)"/>
<path d="M0 0 C4.599375 -0.061875 9.19875 -0.12375 13.9375 -0.1875 C15.36956787 -0.21481201 16.80163574 -0.24212402 18.27709961 -0.27026367 C33.77121638 -0.37076956 33.77121638 -0.37076956 40.15625 4.71875 C40.5996875 5.3065625 41.043125 5.894375 41.5 6.5 C41.9640625 7.0878125 42.428125 7.675625 42.90625 8.28125 C45.77534964 12.78983515 45.54171918 17.85748274 45 23 C43.21466281 28.89671368 40.06972664 32.62018224 35 36 C28.07287504 38.78632959 20.92282588 38.22085856 13.5625 38.125 C9.086875 38.08375 4.61125 38.0425 0 38 C0 25.46 0 12.92 0 0 Z " fill="#F9F9F9" transform="translate(67,189)"/>
</svg>
